#N canvas 313 143 837 586 10;
#X obj 20 334 hsl 128 15 0 1 0 1 empty empty empty -2 -8 0 10 -262144
-1 -1 2177 1;
#X floatatom 92 359 5 0 0 0 - - -;
#X floatatom 59 505 5 0 0 0 - - -;
#X floatatom 18 505 5 0 0 0 - - -;
#X floatatom 110 506 5 0 0 0 - - -;
#X obj 17 212 r RGB;
#X obj 18 550 s RED;
#X obj 59 550 s GREEN;
#X obj 110 549 s BLUE;
#X text 49 316 Main Slider;
#X obj 102 384 moses 0.65;
#X obj 17 384 moses 0.349;
#N canvas 149 345 631 300 (subpatch) 0;
#X obj -6 8 inlet;
#X obj 69 195 outlet R;
#X obj 142 194 outlet G;
#X obj 212 195 outlet B;
#X floatatom 17 203 5 0 0 0 - - -;
#X floatatom 130 89 5 0 0 0 - - -;
#X obj -15 129 maxlib/scale 0.35 0.649 1 1;
#X obj 158 130 maxlib/scale 0.349 0.649 0.01 0.07;
#X obj 379 131 maxlib/scale 0.349 0.649 0 0.11;
#X connect 0 0 5 0;
#X connect 0 0 6 0;
#X connect 0 0 7 0;
#X connect 0 0 8 0;
#X connect 6 0 1 0;
#X connect 6 0 4 0;
#X connect 7 0 2 0;
#X connect 8 0 3 0;
#X restore 102 414 pd 0.349 - 0.65;
#N canvas 668 461 476 300 (subpatch) 0;
#X obj -6 8 inlet;
#X obj 69 195 outlet R;
#X obj 142 194 outlet G;
#X obj 212 195 outlet B;
#X obj 308 107 * 0;
#X floatatom 17 203 5 0 0 0 - - -;
#X floatatom 130 89 5 0 0 0 - - -;
#X obj 335 129 maxlib/scale 0 0.346 0 0;
#X obj -15 129 maxlib/scale 0 0.349 1 1;
#X obj 139 129 maxlib/scale 0 0.349 0.457 0.01;
#X connect 0 0 6 0;
#X connect 0 0 4 0;
#X connect 0 0 8 0;
#X connect 0 0 9 0;
#X connect 4 0 3 0;
#X connect 8 0 1 0;
#X connect 8 0 5 0;
#X connect 9 0 2 0;
#X restore 17 414 pd 0 - 0.349;
#X obj 110 528 * 1;
#X obj 356 435 hsl 128 15 0 1 0 1 empty empty empty -2 -8 0 10 -262144
-1 -1 0 1;
#X obj 59 527 * 1;
#X obj 18 526 * 1;
#X obj 352 456 bng 15 250 50 0 empty empty empty 17 7 0 10 -262144
-1 -1;
#X obj 200 384 moses 1;
#N canvas 589 444 631 300 (subpatch) 0;
#X obj -6 8 inlet;
#X obj 69 195 outlet R;
#X obj 142 194 outlet G;
#X obj 212 195 outlet B;
#X floatatom 17 203 5 0 0 0 - - -;
#X floatatom 130 89 5 0 0 0 - - -;
#X obj 158 130 maxlib/scale 0.65 1 0.07 0.05;
#X obj -16 129 maxlib/scale 0.65 1 1 0.91;
#X obj 379 131 maxlib/scale 0.65 1 0.11 0.35;
#X connect 0 0 5 0;
#X connect 0 0 6 0;
#X connect 0 0 7 0;
#X connect 0 0 8 0;
#X connect 6 0 2 0;
#X connect 7 0 1 0;
#X connect 7 0 4 0;
#X connect 8 0 3 0;
#X restore 200 414 pd 0.65 - 1;
#X floatatom 643 389 5 0 0 0 - - -;
#X obj 643 321 select 1 0;
#X obj 643 363 line;
#X obj 316 418 spigot;
#X floatatom 643 301 5 0 0 0 - - -;
#X obj 419 401 line;
#X msg 419 380 \$1 \, 0 500;
#X obj 353 286 select 1 0;
#X obj 353 359 f 1;
#X obj 419 359 f 1;
#X obj 353 400 line;
#X msg 353 379 0 \, \$1 500;
#X msg 766 291 1;
#N canvas 242 74 166 366 ANALOG-OUTPUT-PWM 1;
#X obj -10 81 r RED;
#X obj 79 81 r BLUE;
#X obj 28 81 r GREEN;
#X obj -19 406 comport 9600;
#X msg 29 372 close;
#X obj -9 135 vsl 15 128 0 255 0 0 empty empty empty 0 -9 0 10 -262144
-1 -1 0 1;
#X obj 9 135 vsl 15 128 0 255 0 0 empty empty empty 0 -9 0 10 -262144
-1 -1 0 1;
#X obj 28 135 vsl 15 128 0 255 0 0 empty empty empty 0 -9 0 10 -262144
-1 -1 0 1;
#X obj -19 320 pack 1 1 1;
#X obj -19 292 int;
#X obj 9 292 int;
#X obj 37 291 int;
#X obj 14 271 bng 15 250 50 0 empty empty empty 17 7 0 10 -262144 -1
-1;
#X obj 38 271 bng 15 250 50 0 empty empty empty 17 7 0 10 -262144 -1
-1;
#X obj -16 104 * 255;
#X obj 22 104 * 255;
#X obj 60 103 * 255;
#X obj 53 322 loadbang;
#X msg -19 372 open 0;
#X obj 53 344 pipe 10000;
#X connect 0 0 14 0;
#X connect 1 0 16 0;
#X connect 2 0 15 0;
#X connect 4 0 3 0;
#X connect 5 0 9 0;
#X connect 6 0 10 0;
#X connect 6 0 12 0;
#X connect 7 0 11 0;
#X connect 7 0 13 0;
#X connect 8 0 3 0;
#X connect 9 0 8 0;
#X connect 10 0 8 1;
#X connect 11 0 8 2;
#X connect 12 0 8 0;
#X connect 13 0 8 0;
#X connect 14 0 5 0;
#X connect 15 0 6 0;
#X connect 16 0 7 0;
#X connect 17 0 19 0;
#X connect 18 0 3 0;
#X connect 19 0 18 0;
#X restore 20 76 pd ANALOG-OUTPUT-PWM;
#X obj 162 111 OSCroute /1 /2 /3 /4;
#X obj 162 78 dumpOSC 8000;
#X obj 162 139 s RGB;
#N canvas 595 266 705 293 REMOTE 1;
#X obj 18 263 sendOSC;
#X msg 22 115 send /1/label1/control/ On;
#X msg 190 116 send /1/label1/control/ Off;
#X msg 292 153 send /1/label3/control/ High;
#X msg 476 154 send /1/label3/control/ Low;
#X msg 250 216 send /1/label2/control/ Sunset-On;
#X msg 464 216 send /1/label2/control/ Sunset-Off;
#X obj -7 7 loadbang;
#X obj -7 30 pipe 700;
#X obj 202 50 inlet;
#X obj 202 73 select 1 0;
#X obj 346 50 inlet;
#X obj 346 73 select 1 0;
#X obj 508 49 inlet;
#X obj 508 72 select 1 0;
#X msg -7 53 connect 192.168.2.12 9000;
#X connect 1 0 0 0;
#X connect 2 0 0 0;
#X connect 3 0 0 0;
#X connect 4 0 0 0;
#X connect 5 0 0 0;
#X connect 6 0 0 0;
#X connect 7 0 8 0;
#X connect 8 0 15 0;
#X connect 9 0 10 0;
#X connect 10 0 1 0;
#X connect 10 1 2 0;
#X connect 11 0 12 0;
#X connect 12 0 3 0;
#X connect 12 1 4 0;
#X connect 13 0 14 0;
#X connect 14 0 5 0;
#X connect 14 1 6 0;
#X connect 15 0 0 0;
#X restore 218 324 pd REMOTE INFO;
#X obj 17 234 OSCroute /rotary3 /fader4 /toggle4 /toggle1 /toggle3
;
#X msg 715 290 0.2;
#X msg 643 341 0.2 \, 1 700;
#X msg 721 341 1 \, 0.2 700;
#N canvas 606 46 733 600 AutoSunset 1;
#X obj 115 28 inlet;
#X obj 11 492 line;
#X msg 155 103 stop;
#X obj 227 492 line;
#X obj 336 492 line;
#X obj 227 516 sel 1;
#X obj 336 516 sel 0;
#X obj 225 555 gate 1;
#X obj 631 529 tgl 15 0 empty empty empty 17 7 0 10 -262144 -1 -1 0
1;
#X obj 334 555 gate 1;
#X obj 483 511 hsl 128 15 0 1 0 0 empty empty empty -2 -8 0 10 -262144
-1 -1 2177 1;
#X floatatom 480 531 5 0 0 0 - - -;
#X obj 220 247 t f f;
#X floatatom 220 201 5 0 0 0 - - -;
#X obj 155 123 s stop;
#X obj 422 468 r stop;
#X obj 628 444 r stop;
#X msg 628 468 0;
#X obj 115 53 tgl 15 0 empty empty empty 17 7 0 10 -262144 -1 -1 0
1;
#X obj 115 123 s go;
#X msg 595 468 1;
#X obj 595 444 r go;
#X obj 115 80 sel 1;
#X obj 155 80 sel 0;
#X obj 14 312 gate 2;
#X obj 29 64 r fval;
#X obj 14 118 == 1;
#X obj 52 118 == 0;
#X obj 14 206 ==;
#X obj -3 184 bng 15 250 50 0 empty empty empty 17 7 0 10 -262144 -1
-1;
#X obj 215 425 sel 1;
#X obj 253 425 sel 1;
#X obj 14 231 sel 1;
#X obj 14 283 f;
#X obj 14 94 f;
#X obj 173 468 r stop;
#X obj 11 516 sel 1;
#X obj 9 555 gate 1;
#X obj 95 492 line;
#X obj 93 555 gate 1;
#X obj 95 516 sel 0;
#X obj 220 271 >;
#X msg 417 491 1;
#X msg 446 491 0;
#X obj 417 518 tgl 15 0 empty empty empty 17 7 0 10 -262144 -1 -1 0
1;
#X obj 220 222 change;
#X obj 220 295 + 1;
#X floatatom 220 316 5 0 0 0 - - -;
#X obj 256 288 tgl 15 0 empty empty empty 17 7 0 10 -262144 -1 -1 0
1;
#X obj 663 511 outlet;
#X msg 95 468 \$1 \, 0 \$2;
#X msg 11 468 \$1 \, 1 \$2;
#N canvas 839 434 450 300 Math 0;
#X obj 164 188 pack;
#X obj 199 207 print;
#X obj 197 163 *;
#X msg 176 100 1;
#X obj 197 131 -;
#X obj 164 151 f;
#X floatatom 212 69 5 0 0 0 - - -;
#X obj 164 240 outlet;
#X obj 211 10 inlet;
#X obj 253 56 loadbang;
#X obj 115 45 t b b b f;
#X msg 252 86 900000;
#X connect 0 0 1 0;
#X connect 0 0 7 0;
#X connect 2 0 0 1;
#X connect 3 0 4 0;
#X connect 4 0 2 0;
#X connect 5 0 0 0;
#X connect 6 0 5 1;
#X connect 6 0 4 1;
#X connect 8 0 6 0;
#X connect 8 0 10 0;
#X connect 9 0 11 0;
#X connect 10 0 5 0;
#X connect 10 1 2 0;
#X connect 10 2 3 0;
#X connect 10 3 6 0;
#X connect 11 0 2 1;
#X restore 11 426 pd Math 1;
#N canvas 969 347 450 300 Math 0;
#X floatatom 200 63 5 0 0 0 - - -;
#X obj 168 109 f;
#X obj 168 175 pack;
#X obj 200 207 print;
#X obj 200 143 *;
#X obj 196 10 inlet;
#X obj 168 232 outlet;
#X obj 214 91 loadbang;
#X obj 149 38 t b b f f;
#X msg 214 118 900000;
#X connect 0 0 4 0;
#X connect 1 0 2 0;
#X connect 2 0 3 0;
#X connect 2 0 6 0;
#X connect 4 0 2 1;
#X connect 5 0 8 0;
#X connect 7 0 9 0;
#X connect 8 1 1 0;
#X connect 8 2 1 1;
#X connect 8 3 0 0;
#X connect 9 0 4 1;
#X restore 95 426 pd Math 2;
#X obj 29 257 r fval;
#X obj 220 174 r fval;
#X floatatom 61 352 5 0 0 0 - - -;
#X msg 227 468 0 \, 1 900000;
#X msg 336 468 1 \, 0 900000;
#X connect 0 0 18 0;
#X connect 1 0 10 0;
#X connect 1 0 36 0;
#X connect 1 0 49 0;
#X connect 2 0 14 0;
#X connect 3 0 5 0;
#X connect 3 0 10 0;
#X connect 3 0 49 0;
#X connect 4 0 6 0;
#X connect 4 0 10 0;
#X connect 4 0 49 0;
#X connect 5 0 7 1;
#X connect 6 0 9 1;
#X connect 7 0 58 0;
#X connect 8 0 7 0;
#X connect 8 0 9 0;
#X connect 8 0 37 0;
#X connect 8 0 39 0;
#X connect 9 0 57 0;
#X connect 10 0 11 0;
#X connect 12 0 41 1;
#X connect 12 1 41 0;
#X connect 13 0 45 0;
#X connect 15 0 4 0;
#X connect 15 0 3 0;
#X connect 16 0 17 0;
#X connect 17 0 8 0;
#X connect 18 0 22 0;
#X connect 18 0 23 0;
#X connect 20 0 8 0;
#X connect 21 0 20 0;
#X connect 22 0 19 0;
#X connect 22 0 34 0;
#X connect 23 0 2 0;
#X connect 24 0 53 0;
#X connect 24 1 52 0;
#X connect 24 1 56 0;
#X connect 25 0 34 1;
#X connect 26 0 28 0;
#X connect 26 0 30 0;
#X connect 27 0 28 1;
#X connect 27 0 29 0;
#X connect 27 0 31 0;
#X connect 28 0 32 0;
#X connect 29 0 28 0;
#X connect 30 0 58 0;
#X connect 31 0 57 0;
#X connect 32 0 33 0;
#X connect 33 0 24 1;
#X connect 34 0 26 0;
#X connect 34 0 27 0;
#X connect 35 0 1 0;
#X connect 35 0 38 0;
#X connect 36 0 37 1;
#X connect 37 0 58 0;
#X connect 38 0 10 0;
#X connect 38 0 40 0;
#X connect 38 0 49 0;
#X connect 39 0 57 0;
#X connect 40 0 39 1;
#X connect 41 0 46 0;
#X connect 41 0 48 0;
#X connect 42 0 44 0;
#X connect 43 0 44 0;
#X connect 45 0 12 0;
#X connect 46 0 47 0;
#X connect 46 0 24 0;
#X connect 50 0 38 0;
#X connect 51 0 1 0;
#X connect 52 0 51 0;
#X connect 53 0 50 0;
#X connect 54 0 33 1;
#X connect 55 0 13 0;
#X connect 57 0 3 0;
#X connect 57 0 42 0;
#X connect 58 0 4 0;
#X connect 58 0 43 0;
#X restore 43 290 pd AutoSunset;
#X obj 31 362 s fval;
#X text 618 255 ON/OFF FADE SETTINGS - DISABLED;
#X obj 207 140 s RGB2;
#X obj 344 508 OSCroute /fader1 /fader2 /fader3;
#X obj 344 484 r RGB2;
#X connect 0 0 1 0;
#X connect 0 0 11 0;
#X connect 0 0 44 0;
#X connect 2 0 16 0;
#X connect 3 0 17 0;
#X connect 4 0 14 0;
#X connect 5 0 39 0;
#X connect 10 0 12 0;
#X connect 10 1 19 0;
#X connect 11 0 13 0;
#X connect 11 1 10 0;
#X connect 12 0 3 0;
#X connect 12 1 2 0;
#X connect 12 2 4 0;
#X connect 13 0 3 0;
#X connect 13 1 2 0;
#X connect 13 2 4 0;
#X connect 14 0 8 0;
#X connect 15 0 14 1;
#X connect 15 0 16 1;
#X connect 15 0 17 1;
#X connect 15 0 18 0;
#X connect 16 0 7 0;
#X connect 17 0 6 0;
#X connect 18 0 14 0;
#X connect 18 0 16 0;
#X connect 18 0 17 0;
#X connect 19 0 20 0;
#X connect 20 0 3 0;
#X connect 20 1 2 0;
#X connect 20 2 4 0;
#X connect 22 0 41 0;
#X connect 22 1 42 0;
#X connect 23 0 21 0;
#X connect 24 0 15 0;
#X connect 25 0 22 0;
#X connect 26 0 15 0;
#X connect 27 0 26 0;
#X connect 28 0 29 0;
#X connect 28 1 30 0;
#X connect 29 0 32 0;
#X connect 30 0 27 0;
#X connect 31 0 15 0;
#X connect 32 0 31 0;
#X connect 35 0 37 0;
#X connect 35 1 46 0;
#X connect 36 0 35 0;
#X connect 39 0 0 0;
#X connect 39 1 24 0;
#X connect 39 1 29 1;
#X connect 39 1 30 1;
#X connect 39 2 25 0;
#X connect 39 2 38 1;
#X connect 39 3 24 1;
#X connect 39 3 28 0;
#X connect 39 3 38 0;
#X connect 39 4 38 2;
#X connect 39 4 43 0;
#X connect 41 0 23 0;
#X connect 42 0 23 0;
#X connect 43 0 0 0;
#X connect 47 0 3 0;
#X connect 47 1 2 0;
#X connect 47 2 4 0;
#X connect 48 0 47 0;
